<mxfile host="app.diagrams.net" modified="2024-01-31T09:54:15.502Z" agent="Mozilla/5.0 (Windows NT 10.0; Win64; x64; rv:121.0) Gecko/20100101 Firefox/121.0" etag="HkEz8oCrYrbqvcuzVC_p" version="23.0.2" type="github">
  <diagram name="Pagina-1" id="PaYXS4ldTpePjklcSmy4">
    <mxGraphModel dx="867" dy="1691" grid="1" gridSize="10" guides="1" tooltips="1" connect="1" arrows="1" fold="1" page="1" pageScale="1" pageWidth="827" pageHeight="1169" math="0" shadow="0">
      <root>
        <mxCell id="0" />
        <mxCell id="1" parent="0" />
        <mxCell id="5T3qXllgy87Zn4Q4jWy5-8" value="" style="rounded=0;whiteSpace=wrap;html=1;" parent="1" vertex="1">
          <mxGeometry x="380" y="-30.45" width="110" height="420" as="geometry" />
        </mxCell>
        <mxCell id="5Dw_6mSEqZv97K4sGEO4-3" value="" style="ellipse;whiteSpace=wrap;html=1;" parent="1" vertex="1">
          <mxGeometry x="389.5" y="349.55" width="90" height="30" as="geometry" />
        </mxCell>
        <mxCell id="S9pwn4ESXyOmxC7xWbH2-3" value="" style="ellipse;whiteSpace=wrap;html=1;" parent="1" vertex="1">
          <mxGeometry x="390.5" y="189.55" width="90" height="30" as="geometry" />
        </mxCell>
        <mxCell id="5T3qXllgy87Zn4Q4jWy5-9" value="" style="ellipse;whiteSpace=wrap;html=1;" parent="1" vertex="1">
          <mxGeometry x="390" y="109.55" width="90" height="30" as="geometry" />
        </mxCell>
        <mxCell id="5T3qXllgy87Zn4Q4jWy5-12" value="Webshop NerdyGadgets" style="text;html=1;strokeColor=none;fillColor=none;align=center;verticalAlign=middle;whiteSpace=wrap;rounded=0;fontSize=8;" parent="1" vertex="1">
          <mxGeometry x="359" y="-60.45" width="150" height="80" as="geometry" />
        </mxCell>
        <mxCell id="5T3qXllgy87Zn4Q4jWy5-13" value="Producten bekijken" style="text;html=1;strokeColor=none;fillColor=none;align=center;verticalAlign=middle;whiteSpace=wrap;rounded=0;fontSize=8;" parent="1" vertex="1">
          <mxGeometry x="395.5" y="189.55" width="80" height="30" as="geometry" />
        </mxCell>
        <mxCell id="S9pwn4ESXyOmxC7xWbH2-4" value="Producten bladeren" style="text;html=1;strokeColor=none;fillColor=none;align=center;verticalAlign=middle;whiteSpace=wrap;rounded=0;fontSize=8;" parent="1" vertex="1">
          <mxGeometry x="395.5" y="109.55" width="80" height="30" as="geometry" />
        </mxCell>
        <mxCell id="iaaNNm-uUOiq8UuMti3a-2" value="" style="ellipse;whiteSpace=wrap;html=1;" parent="1" vertex="1">
          <mxGeometry x="390" y="69.55" width="90" height="30" as="geometry" />
        </mxCell>
        <mxCell id="iaaNNm-uUOiq8UuMti3a-3" value="Producten zoeken" style="text;html=1;strokeColor=none;fillColor=none;align=center;verticalAlign=middle;whiteSpace=wrap;rounded=0;fontSize=8;" parent="1" vertex="1">
          <mxGeometry x="395" y="69.55" width="80" height="30" as="geometry" />
        </mxCell>
        <mxCell id="G08qufEcpgoM_vYvbx7a-3" value="" style="ellipse;whiteSpace=wrap;html=1;" parent="1" vertex="1">
          <mxGeometry x="390.5" y="229.55" width="90" height="30" as="geometry" />
        </mxCell>
        <mxCell id="G08qufEcpgoM_vYvbx7a-4" value="" style="ellipse;whiteSpace=wrap;html=1;" parent="1" vertex="1">
          <mxGeometry x="390.5" y="269.55" width="90" height="30" as="geometry" />
        </mxCell>
        <mxCell id="G08qufEcpgoM_vYvbx7a-10" value="Winkelmandje beheren" style="text;html=1;strokeColor=none;fillColor=none;align=center;verticalAlign=middle;whiteSpace=wrap;rounded=0;fontSize=8;" parent="1" vertex="1">
          <mxGeometry x="395.5" y="229.55" width="80" height="30" as="geometry" />
        </mxCell>
        <mxCell id="G08qufEcpgoM_vYvbx7a-11" value="Kortingscode toepassen" style="text;html=1;strokeColor=none;fillColor=none;align=center;verticalAlign=middle;whiteSpace=wrap;rounded=0;fontSize=8;" parent="1" vertex="1">
          <mxGeometry x="395.5" y="269.55" width="80" height="30" as="geometry" />
        </mxCell>
        <mxCell id="5Dw_6mSEqZv97K4sGEO4-2" value="Bestelling afrekenen" style="text;html=1;strokeColor=none;fillColor=none;align=center;verticalAlign=middle;whiteSpace=wrap;rounded=0;fontSize=8;" parent="1" vertex="1">
          <mxGeometry x="394.5" y="349.55" width="80" height="30" as="geometry" />
        </mxCell>
        <mxCell id="WqA3gAZD5SLCC9YRwfmF-26" value="" style="ellipse;whiteSpace=wrap;html=1;" parent="1" vertex="1">
          <mxGeometry x="389" y="29.55" width="90" height="30" as="geometry" />
        </mxCell>
        <mxCell id="WqA3gAZD5SLCC9YRwfmF-27" value="Account beheren" style="text;html=1;strokeColor=none;fillColor=none;align=center;verticalAlign=middle;whiteSpace=wrap;rounded=0;fontSize=8;" parent="1" vertex="1">
          <mxGeometry x="394" y="29.55" width="80" height="30" as="geometry" />
        </mxCell>
        <mxCell id="WqA3gAZD5SLCC9YRwfmF-35" value="" style="ellipse;whiteSpace=wrap;html=1;" parent="1" vertex="1">
          <mxGeometry x="390.5" y="309.55" width="90" height="30" as="geometry" />
        </mxCell>
        <mxCell id="WqA3gAZD5SLCC9YRwfmF-43" value="" style="ellipse;whiteSpace=wrap;html=1;aspect=fixed;" parent="1" vertex="1">
          <mxGeometry x="545" y="319.55" width="20" height="20" as="geometry" />
        </mxCell>
        <mxCell id="WqA3gAZD5SLCC9YRwfmF-44" value="" style="endArrow=none;html=1;rounded=0;entryX=0.5;entryY=1;entryDx=0;entryDy=0;" parent="1" target="WqA3gAZD5SLCC9YRwfmF-43" edge="1">
          <mxGeometry width="50" height="50" relative="1" as="geometry">
            <mxPoint x="555" y="369.55" as="sourcePoint" />
            <mxPoint x="595" y="369.55" as="targetPoint" />
            <Array as="points">
              <mxPoint x="555" y="359.55" />
            </Array>
          </mxGeometry>
        </mxCell>
        <mxCell id="WqA3gAZD5SLCC9YRwfmF-45" value="" style="endArrow=none;html=1;rounded=0;" parent="1" edge="1">
          <mxGeometry width="50" height="50" relative="1" as="geometry">
            <mxPoint x="540" y="349.55" as="sourcePoint" />
            <mxPoint x="570" y="349.55" as="targetPoint" />
            <Array as="points" />
          </mxGeometry>
        </mxCell>
        <mxCell id="WqA3gAZD5SLCC9YRwfmF-46" value="" style="endArrow=none;html=1;rounded=0;" parent="1" edge="1">
          <mxGeometry width="50" height="50" relative="1" as="geometry">
            <mxPoint x="545" y="379.55" as="sourcePoint" />
            <mxPoint x="565" y="379.55" as="targetPoint" />
            <Array as="points">
              <mxPoint x="555" y="369.55" />
            </Array>
          </mxGeometry>
        </mxCell>
        <mxCell id="GTOzPJjOpPYZyw7FMu1k-3" value="" style="ellipse;whiteSpace=wrap;html=1;" parent="1" vertex="1">
          <mxGeometry x="389" y="-10.45" width="90" height="30" as="geometry" />
        </mxCell>
        <mxCell id="GTOzPJjOpPYZyw7FMu1k-4" value="Account aanmaken" style="text;html=1;strokeColor=none;fillColor=none;align=center;verticalAlign=middle;whiteSpace=wrap;rounded=0;fontSize=8;" parent="1" vertex="1">
          <mxGeometry x="395" y="-10.45" width="80" height="30" as="geometry" />
        </mxCell>
        <mxCell id="GTOzPJjOpPYZyw7FMu1k-9" value="Gegevens invullen" style="text;html=1;strokeColor=none;fillColor=none;align=center;verticalAlign=middle;whiteSpace=wrap;rounded=0;fontSize=8;" parent="1" vertex="1">
          <mxGeometry x="395.5" y="314.55" width="80" height="20" as="geometry" />
        </mxCell>
        <mxCell id="GTOzPJjOpPYZyw7FMu1k-11" value="" style="ellipse;whiteSpace=wrap;html=1;" parent="1" vertex="1">
          <mxGeometry x="390" y="149.55" width="90" height="30" as="geometry" />
        </mxCell>
        <mxCell id="GTOzPJjOpPYZyw7FMu1k-12" value="Populaire producten bekijken" style="text;html=1;strokeColor=none;fillColor=none;align=center;verticalAlign=middle;whiteSpace=wrap;rounded=0;fontSize=8;" parent="1" vertex="1">
          <mxGeometry x="395" y="149.55" width="80" height="30" as="geometry" />
        </mxCell>
        <mxCell id="P-k6SMPHdyf8jcMQoKpu-4" style="edgeStyle=orthogonalEdgeStyle;rounded=0;orthogonalLoop=1;jettySize=auto;html=1;exitX=0.5;exitY=1;exitDx=0;exitDy=0;" edge="1" parent="1" source="5T3qXllgy87Zn4Q4jWy5-8" target="5T3qXllgy87Zn4Q4jWy5-8">
          <mxGeometry relative="1" as="geometry" />
        </mxCell>
        <mxCell id="P-k6SMPHdyf8jcMQoKpu-5" value="Bank" style="text;html=1;strokeColor=none;fillColor=none;align=center;verticalAlign=middle;whiteSpace=wrap;rounded=0;" vertex="1" parent="1">
          <mxGeometry x="525" y="370" width="60" height="30" as="geometry" />
        </mxCell>
        <mxCell id="P-k6SMPHdyf8jcMQoKpu-6" value="" style="endArrow=none;html=1;rounded=0;" edge="1" parent="1">
          <mxGeometry width="50" height="50" relative="1" as="geometry">
            <mxPoint x="480" y="364.27" as="sourcePoint" />
            <mxPoint x="540" y="364" as="targetPoint" />
            <Array as="points" />
          </mxGeometry>
        </mxCell>
        <mxCell id="P-k6SMPHdyf8jcMQoKpu-11" value="" style="ellipse;whiteSpace=wrap;html=1;aspect=fixed;" vertex="1" parent="1">
          <mxGeometry x="125" y="80.00000000000001" width="20" height="20" as="geometry" />
        </mxCell>
        <mxCell id="P-k6SMPHdyf8jcMQoKpu-12" value="" style="endArrow=none;html=1;rounded=0;entryX=0.5;entryY=1;entryDx=0;entryDy=0;" edge="1" parent="1" target="P-k6SMPHdyf8jcMQoKpu-11">
          <mxGeometry width="50" height="50" relative="1" as="geometry">
            <mxPoint x="135" y="130" as="sourcePoint" />
            <mxPoint x="175" y="130" as="targetPoint" />
            <Array as="points">
              <mxPoint x="135" y="120.00000000000001" />
            </Array>
          </mxGeometry>
        </mxCell>
        <mxCell id="P-k6SMPHdyf8jcMQoKpu-13" value="" style="endArrow=none;html=1;rounded=0;" edge="1" parent="1">
          <mxGeometry width="50" height="50" relative="1" as="geometry">
            <mxPoint x="120" y="110.00000000000001" as="sourcePoint" />
            <mxPoint x="150" y="110.00000000000001" as="targetPoint" />
            <Array as="points" />
          </mxGeometry>
        </mxCell>
        <mxCell id="P-k6SMPHdyf8jcMQoKpu-14" value="" style="endArrow=none;html=1;rounded=0;" edge="1" parent="1">
          <mxGeometry width="50" height="50" relative="1" as="geometry">
            <mxPoint x="125" y="140" as="sourcePoint" />
            <mxPoint x="145" y="140" as="targetPoint" />
            <Array as="points">
              <mxPoint x="135" y="130" />
            </Array>
          </mxGeometry>
        </mxCell>
        <mxCell id="P-k6SMPHdyf8jcMQoKpu-19" value="" style="ellipse;whiteSpace=wrap;html=1;aspect=fixed;" vertex="1" parent="1">
          <mxGeometry x="125" y="200" width="20" height="20" as="geometry" />
        </mxCell>
        <mxCell id="P-k6SMPHdyf8jcMQoKpu-20" value="" style="endArrow=none;html=1;rounded=0;entryX=0.5;entryY=1;entryDx=0;entryDy=0;" edge="1" parent="1" target="P-k6SMPHdyf8jcMQoKpu-19">
          <mxGeometry width="50" height="50" relative="1" as="geometry">
            <mxPoint x="135" y="250" as="sourcePoint" />
            <mxPoint x="175" y="250" as="targetPoint" />
            <Array as="points">
              <mxPoint x="135" y="240" />
            </Array>
          </mxGeometry>
        </mxCell>
        <mxCell id="P-k6SMPHdyf8jcMQoKpu-21" value="" style="endArrow=none;html=1;rounded=0;" edge="1" parent="1">
          <mxGeometry width="50" height="50" relative="1" as="geometry">
            <mxPoint x="120" y="230" as="sourcePoint" />
            <mxPoint x="150" y="230" as="targetPoint" />
            <Array as="points" />
          </mxGeometry>
        </mxCell>
        <mxCell id="P-k6SMPHdyf8jcMQoKpu-22" value="" style="endArrow=none;html=1;rounded=0;" edge="1" parent="1">
          <mxGeometry width="50" height="50" relative="1" as="geometry">
            <mxPoint x="125" y="260" as="sourcePoint" />
            <mxPoint x="145" y="260" as="targetPoint" />
            <Array as="points">
              <mxPoint x="135" y="250" />
            </Array>
          </mxGeometry>
        </mxCell>
        <mxCell id="P-k6SMPHdyf8jcMQoKpu-23" value="" style="endArrow=none;html=1;rounded=0;entryX=0;entryY=0.5;entryDx=0;entryDy=0;" edge="1" parent="1" target="GTOzPJjOpPYZyw7FMu1k-3">
          <mxGeometry width="50" height="50" relative="1" as="geometry">
            <mxPoint x="160" y="110" as="sourcePoint" />
            <mxPoint x="300" y="30" as="targetPoint" />
          </mxGeometry>
        </mxCell>
        <mxCell id="P-k6SMPHdyf8jcMQoKpu-24" value="" style="endArrow=none;html=1;rounded=0;entryX=0;entryY=0.5;entryDx=0;entryDy=0;" edge="1" parent="1" target="iaaNNm-uUOiq8UuMti3a-2">
          <mxGeometry width="50" height="50" relative="1" as="geometry">
            <mxPoint x="160" y="110" as="sourcePoint" />
            <mxPoint x="399" y="15" as="targetPoint" />
          </mxGeometry>
        </mxCell>
        <mxCell id="P-k6SMPHdyf8jcMQoKpu-25" value="" style="endArrow=none;html=1;rounded=0;entryX=0;entryY=0.5;entryDx=0;entryDy=0;" edge="1" parent="1" target="5T3qXllgy87Zn4Q4jWy5-9">
          <mxGeometry width="50" height="50" relative="1" as="geometry">
            <mxPoint x="160" y="110" as="sourcePoint" />
            <mxPoint x="409" y="25" as="targetPoint" />
          </mxGeometry>
        </mxCell>
        <mxCell id="P-k6SMPHdyf8jcMQoKpu-26" value="" style="endArrow=none;html=1;rounded=0;entryX=0;entryY=0.5;entryDx=0;entryDy=0;" edge="1" parent="1" target="GTOzPJjOpPYZyw7FMu1k-11">
          <mxGeometry width="50" height="50" relative="1" as="geometry">
            <mxPoint x="160" y="110" as="sourcePoint" />
            <mxPoint x="419" y="35" as="targetPoint" />
          </mxGeometry>
        </mxCell>
        <mxCell id="P-k6SMPHdyf8jcMQoKpu-27" value="" style="endArrow=none;html=1;rounded=0;entryX=0;entryY=0.5;entryDx=0;entryDy=0;" edge="1" parent="1" target="S9pwn4ESXyOmxC7xWbH2-3">
          <mxGeometry width="50" height="50" relative="1" as="geometry">
            <mxPoint x="160" y="110" as="sourcePoint" />
            <mxPoint x="429" y="45" as="targetPoint" />
          </mxGeometry>
        </mxCell>
        <mxCell id="P-k6SMPHdyf8jcMQoKpu-28" value="" style="endArrow=none;html=1;rounded=0;entryX=0;entryY=0.5;entryDx=0;entryDy=0;" edge="1" parent="1" target="G08qufEcpgoM_vYvbx7a-3">
          <mxGeometry width="50" height="50" relative="1" as="geometry">
            <mxPoint x="160" y="110" as="sourcePoint" />
            <mxPoint x="439" y="55" as="targetPoint" />
          </mxGeometry>
        </mxCell>
        <mxCell id="P-k6SMPHdyf8jcMQoKpu-29" value="" style="endArrow=none;html=1;rounded=0;entryX=0;entryY=0.5;entryDx=0;entryDy=0;" edge="1" parent="1" target="G08qufEcpgoM_vYvbx7a-4">
          <mxGeometry width="50" height="50" relative="1" as="geometry">
            <mxPoint x="160" y="110" as="sourcePoint" />
            <mxPoint x="449" y="65" as="targetPoint" />
          </mxGeometry>
        </mxCell>
        <mxCell id="P-k6SMPHdyf8jcMQoKpu-30" value="" style="endArrow=none;html=1;rounded=0;entryX=0;entryY=0.5;entryDx=0;entryDy=0;" edge="1" parent="1" target="WqA3gAZD5SLCC9YRwfmF-35">
          <mxGeometry width="50" height="50" relative="1" as="geometry">
            <mxPoint x="160" y="110" as="sourcePoint" />
            <mxPoint x="459" y="75" as="targetPoint" />
          </mxGeometry>
        </mxCell>
        <mxCell id="P-k6SMPHdyf8jcMQoKpu-31" value="" style="endArrow=none;html=1;rounded=0;entryX=0;entryY=0.5;entryDx=0;entryDy=0;" edge="1" parent="1" target="5Dw_6mSEqZv97K4sGEO4-3">
          <mxGeometry width="50" height="50" relative="1" as="geometry">
            <mxPoint x="160" y="110" as="sourcePoint" />
            <mxPoint x="469" y="85" as="targetPoint" />
          </mxGeometry>
        </mxCell>
        <mxCell id="P-k6SMPHdyf8jcMQoKpu-32" value="" style="endArrow=none;html=1;rounded=0;entryX=0;entryY=0.5;entryDx=0;entryDy=0;" edge="1" parent="1" target="WqA3gAZD5SLCC9YRwfmF-26">
          <mxGeometry width="50" height="50" relative="1" as="geometry">
            <mxPoint x="160" y="230" as="sourcePoint" />
            <mxPoint x="479" y="95" as="targetPoint" />
          </mxGeometry>
        </mxCell>
        <mxCell id="P-k6SMPHdyf8jcMQoKpu-33" value="" style="endArrow=none;html=1;rounded=0;entryX=0;entryY=0.5;entryDx=0;entryDy=0;" edge="1" parent="1" target="iaaNNm-uUOiq8UuMti3a-2">
          <mxGeometry width="50" height="50" relative="1" as="geometry">
            <mxPoint x="160" y="230" as="sourcePoint" />
            <mxPoint x="489" y="105" as="targetPoint" />
          </mxGeometry>
        </mxCell>
        <mxCell id="P-k6SMPHdyf8jcMQoKpu-34" value="" style="endArrow=none;html=1;rounded=0;entryX=0;entryY=0.5;entryDx=0;entryDy=0;" edge="1" parent="1" target="GTOzPJjOpPYZyw7FMu1k-11">
          <mxGeometry width="50" height="50" relative="1" as="geometry">
            <mxPoint x="160" y="230" as="sourcePoint" />
            <mxPoint x="499" y="115" as="targetPoint" />
          </mxGeometry>
        </mxCell>
        <mxCell id="P-k6SMPHdyf8jcMQoKpu-35" value="" style="endArrow=none;html=1;rounded=0;entryX=0;entryY=0.5;entryDx=0;entryDy=0;" edge="1" parent="1" target="5T3qXllgy87Zn4Q4jWy5-9">
          <mxGeometry width="50" height="50" relative="1" as="geometry">
            <mxPoint x="160" y="230" as="sourcePoint" />
            <mxPoint x="509" y="125" as="targetPoint" />
          </mxGeometry>
        </mxCell>
        <mxCell id="P-k6SMPHdyf8jcMQoKpu-36" value="" style="endArrow=none;html=1;rounded=0;entryX=0;entryY=0.5;entryDx=0;entryDy=0;" edge="1" parent="1" target="S9pwn4ESXyOmxC7xWbH2-3">
          <mxGeometry width="50" height="50" relative="1" as="geometry">
            <mxPoint x="160" y="230" as="sourcePoint" />
            <mxPoint x="519" y="135" as="targetPoint" />
          </mxGeometry>
        </mxCell>
        <mxCell id="P-k6SMPHdyf8jcMQoKpu-37" value="" style="endArrow=none;html=1;rounded=0;entryX=0;entryY=0.5;entryDx=0;entryDy=0;" edge="1" parent="1" target="G08qufEcpgoM_vYvbx7a-3">
          <mxGeometry width="50" height="50" relative="1" as="geometry">
            <mxPoint x="160" y="230" as="sourcePoint" />
            <mxPoint x="529" y="145" as="targetPoint" />
          </mxGeometry>
        </mxCell>
        <mxCell id="P-k6SMPHdyf8jcMQoKpu-38" value="" style="endArrow=none;html=1;rounded=0;entryX=0;entryY=0.5;entryDx=0;entryDy=0;" edge="1" parent="1" target="G08qufEcpgoM_vYvbx7a-4">
          <mxGeometry width="50" height="50" relative="1" as="geometry">
            <mxPoint x="160" y="230" as="sourcePoint" />
            <mxPoint x="539" y="155" as="targetPoint" />
          </mxGeometry>
        </mxCell>
        <mxCell id="P-k6SMPHdyf8jcMQoKpu-39" value="" style="endArrow=none;html=1;rounded=0;entryX=0;entryY=0.5;entryDx=0;entryDy=0;" edge="1" parent="1" target="WqA3gAZD5SLCC9YRwfmF-35">
          <mxGeometry width="50" height="50" relative="1" as="geometry">
            <mxPoint x="160" y="230" as="sourcePoint" />
            <mxPoint x="549" y="165" as="targetPoint" />
          </mxGeometry>
        </mxCell>
        <mxCell id="P-k6SMPHdyf8jcMQoKpu-40" value="" style="endArrow=none;html=1;rounded=0;entryX=0;entryY=0.5;entryDx=0;entryDy=0;" edge="1" parent="1" target="5Dw_6mSEqZv97K4sGEO4-3">
          <mxGeometry width="50" height="50" relative="1" as="geometry">
            <mxPoint x="160" y="230" as="sourcePoint" />
            <mxPoint x="559" y="175" as="targetPoint" />
          </mxGeometry>
        </mxCell>
        <mxCell id="P-k6SMPHdyf8jcMQoKpu-41" value="Bezoeker" style="text;html=1;strokeColor=none;fillColor=none;align=center;verticalAlign=middle;whiteSpace=wrap;rounded=0;" vertex="1" parent="1">
          <mxGeometry x="105" y="130" width="60" height="30" as="geometry" />
        </mxCell>
        <mxCell id="P-k6SMPHdyf8jcMQoKpu-42" value="Klant" style="text;html=1;strokeColor=none;fillColor=none;align=center;verticalAlign=middle;whiteSpace=wrap;rounded=0;" vertex="1" parent="1">
          <mxGeometry x="105" y="250" width="60" height="30" as="geometry" />
        </mxCell>
      </root>
    </mxGraphModel>
  </diagram>
</mxfile>
